<?xml version="1.0" encoding="UTF-8"?><svg id="Layer_1" xmlns="http://www.w3.org/2000/svg" viewBox="0 0 182.58 182.34"><defs><style>.cls-1{fill:#b1b1b1;}</style></defs><path class="cls-1" d="M182.58,71.65v2.49c-.69,2.43-.64,4.97-.99,7.45-1.27,8.98-4.17,17.35-8.58,25.25-3.07,5.5-6.83,10.48-11.24,14.91-3.86,3.88-8.16,7.27-12.84,10.19-6.26,3.9-12.92,6.93-20.06,8.63-7.33,1.75-14.77,2.67-22.41,2-6.32-.55-12.47-1.62-18.47-3.6-5.75-1.9-11.11-4.59-16.18-7.86-1.22-.78-1.54-.42-1.9,.73-.7,2.23-1.96,4.12-3.62,5.78-12.22,12.19-24.45,24.37-36.6,36.62-3.3,3.32-6.54,6.64-11.16,8.1h-6.76c-2.95-1.03-5.63-2.42-7.86-4.76-1.94-2.04-2.71-4.6-3.89-6.99v-6.41c1.17-4.32,4-7.46,7.1-10.53,12.47-12.36,24.87-24.79,37.25-37.24,1.84-1.85,3.9-3.28,6.35-4.02,1.34-.41,1.23-.78,.61-1.73-2.54-3.91-4.76-8-6.46-12.34-3.93-9.99-5.77-20.28-5.07-31.08,.38-5.87,1.33-11.57,2.98-17.16,2.04-6.89,5.23-13.28,9.28-19.19,3.91-5.71,8.57-10.79,14-15.12,5.89-4.7,12.33-8.4,19.39-11.1,6.2-2.37,12.61-3.95,19.17-4.42,5.56-.4,11.18-.35,16.79,.49,8.14,1.22,15.85,3.68,23.08,7.46,9.21,4.82,17.1,11.39,23.33,19.74,9.24,12.39,14.31,26.3,14.45,41.88,0,.62-.24,1.32,.35,1.84Zm-71.75,52.68c29.6,.04,53.12-23.48,53.11-52.78,0-29.82-23.14-53.18-53.12-53.14-29.53,.04-51.54,23.05-52.78,50.58-1.42,31.47,24.21,55.58,52.79,55.33Z"/></svg>