<?xml version="1.0" encoding="UTF-8"?><svg id="Layer_1" xmlns="http://www.w3.org/2000/svg" viewBox="0 0 401.73 511.62"><defs><style>.cls-1{fill:#c63939;}.cls-2{fill:#bc3f3f;}</style></defs><path class="cls-2" d="M0,245.97V0H23.39V245.97H0ZM37.9,0h45.16c70.56,0,122.18,49.6,122.18,122.18s-51.61,123.79-122.18,123.79H37.9V0Zm45.16,223.39c57.26,0,98.79-40.73,98.79-101.21S140.32,22.58,83.07,22.58h-21.77v14.52h17.74c52.02,0,86.29,33.87,86.29,85.08s-34.27,86.69-86.29,86.69h-17.74v14.52h21.77Zm-4.03-37.1c37.9,0,62.9-25.81,62.9-64.11s-25-62.5-62.9-62.5h-17.74v126.61h17.74Z"/><path class="cls-1" d="M225.46,248.39V2.42h23.39V248.39h-23.39ZM263.36,2.42h45.57c51.21,0,87.5,26.21,87.5,72.98,0,20.97-8.06,35.89-21.77,45.97,16.94,10.89,27.02,27.42,27.02,50.81,0,47.98-36.69,76.21-88.31,76.21h-50V2.42Zm50,223.39c37.9,0,64.92-19.76,64.92-53.63,0-22.58-13.71-43.15-41.13-49.19,25.81-4.84,35.89-27.02,35.89-47.58,0-32.26-26.61-50.4-64.11-50.4h-22.18v14.52h22.18c30.24,0,47.58,10.89,47.58,38.31s-17.34,38.71-47.58,38.71h-22.18v14.52h27.82c25.4,0,47.18,12.1,47.18,40.32s-21.77,39.92-47.18,39.92h-27.82v14.52h26.61Zm-4.44-131.86c15.32,0,24.19-4.84,24.19-16.13s-8.87-15.73-24.19-15.73h-22.18v31.85h22.18Zm5.65,94.76c12.9,0,23.79-4.84,23.79-17.34s-10.89-17.74-23.79-17.74h-27.82v35.08h27.82Z"/><path class="cls-1" d="M0,511.62v-245.97H23.39v245.97H0Zm37.9-245.97h45.56c51.21,0,87.5,26.21,87.5,72.98,0,20.97-8.06,35.89-21.77,45.97,16.94,10.89,27.02,27.42,27.02,50.81,0,47.98-36.69,76.21-88.31,76.21H37.9v-245.97Zm50,223.39c37.9,0,64.92-19.76,64.92-53.63,0-22.58-13.71-43.15-41.13-49.19,25.81-4.84,35.89-27.02,35.89-47.58,0-32.26-26.61-50.4-64.11-50.4h-22.18v14.52h22.18c30.24,0,47.58,10.89,47.58,38.31s-17.34,38.71-47.58,38.71h-22.18v14.52h27.82c25.4,0,47.18,12.1,47.18,40.32s-21.77,39.92-47.18,39.92h-27.82v14.52h26.61Zm-4.44-131.86c15.32,0,24.19-4.84,24.19-16.13s-8.87-15.73-24.19-15.73h-22.18v31.86h22.18Zm5.65,94.76c12.9,0,23.79-4.84,23.79-17.34s-10.89-17.74-23.79-17.74h-27.82v35.08h27.82Z"/><rect x="225.46" y="267.28" width="176.21" height="20" transform="translate(-1.67 1.9) rotate(-.35)"/><rect x="222.46" y="322.98" width="176.21" height="20"/><rect x="222.45" y="378.69" width="176.21" height="20" transform="translate(-2.35 1.89) rotate(-.35)"/><rect x="221.3" y="434.39" width="176.21" height="20"/><rect x="221.3" y="490.09" width="176.21" height="20" transform="translate(-3.02 1.88) rotate(-.35)"/></svg>