<?xml version="1.0" encoding="utf-8"?>
<!-- Generator: Adobe Illustrator 26.5.0, SVG Export Plug-In . SVG Version: 6.00 Build 0)  -->
<svg version="1.1" id="Layer_1" xmlns="http://www.w3.org/2000/svg" xmlns:xlink="http://www.w3.org/1999/xlink" x="0px" y="0px"
	 viewBox="0 0 182.6 182.3" style="enable-background:new 0 0 182.6 182.3;" xml:space="preserve">
<style type="text/css">
	.st0{fill:#B1B1B1;}
</style>
<path class="st0" d="M182.6,71.7v2.5c-0.7,2.4-0.6,5-1,7.4c-1.3,9-4.2,17.3-8.6,25.2c-3.1,5.5-6.8,10.5-11.2,14.9
	c-3.9,3.9-8.2,7.3-12.8,10.2c-6.3,3.9-12.9,6.9-20.1,8.6c-7.3,1.8-14.8,2.7-22.4,2C100.1,142,94,141,88,139
	c-5.8-1.9-11.1-4.6-16.2-7.9c-1.2-0.8-1.5-0.4-1.9,0.7c-0.7,2.2-2,4.1-3.6,5.8c-12.2,12.2-24.5,24.4-36.6,36.6
	c-3.3,3.3-6.5,6.6-11.2,8.1h-6.8c-2.9-1-5.6-2.4-7.9-4.8c-1.9-2-2.7-4.6-3.9-7v-6.4c1.2-4.3,4-7.5,7.1-10.5
	c12.5-12.4,24.9-24.8,37.2-37.2c1.8-1.8,3.9-3.3,6.3-4c1.3-0.4,1.2-0.8,0.6-1.7c-2.5-3.9-4.8-8-6.5-12.3c-3.9-10-5.8-20.3-5.1-31.1
	c0.4-5.9,1.3-11.6,3-17.2c2-6.9,5.2-13.3,9.3-19.2c3.9-5.7,8.6-10.8,14-15.1c5.9-4.7,12.3-8.4,19.4-11.1c6.2-2.4,12.6-4,19.2-4.4
	c5.6-0.4,11.2-0.3,16.8,0.5c8.1,1.2,15.8,3.7,23.1,7.5c9.2,4.8,17.1,11.4,23.3,19.7c9.2,12.4,14.3,26.3,14.4,41.9
	C182.3,70.4,182,71.1,182.6,71.7L182.6,71.7z M110.8,124.3c29.6,0,53.1-23.5,53.1-52.8c0-29.8-23.1-53.2-53.1-53.1
	c-29.5,0-51.5,23-52.8,50.6C56.6,100.5,82.3,124.6,110.8,124.3L110.8,124.3z"/>
<path class="st0" d="M111.7,108.5L111.7,108.5c-5.1,0-9.3-4.2-9.3-9.3V43.7c0-5.1,4.2-9.3,9.3-9.3h0c5.1,0,9.3,4.2,9.3,9.3v55.4
	C121,104.3,116.8,108.5,111.7,108.5z"/>
<path class="st0" d="M74.7,71.4L74.7,71.4c0-5.1,4.2-9.3,9.3-9.3h55.4c5.1,0,9.3,4.2,9.3,9.3v0c0,5.1-4.2,9.3-9.3,9.3H84
	C78.9,80.8,74.7,76.6,74.7,71.4z"/>
</svg>
